<?xml version="1.0" standalone="no"?>
<!DOCTYPE svg PUBLIC "-//W3C//DTD SVG 20010904//EN"
 "http://www.w3.org/TR/2001/REC-SVG-20010904/DTD/svg10.dtd">
<svg version="1.0" xmlns="http://www.w3.org/2000/svg"
 width="70.000000pt" height="70.000000pt" viewBox="0 0 70.000000 70.000000"
 preserveAspectRatio="xMidYMid meet">
<metadata>
Created by potrace 1.11, written by Peter Selinger 2001-2013
</metadata>
<g transform="translate(0.000000,70.000000) scale(0.100000,-0.100000)"
fill="#000000" stroke="none">
<path d="M128 600 c-16 -5 -28 -6 -28 -3 0 3 -6 0 -14 -6 -20 -16 -16 -51 5
-51 21 0 33 -15 50 -64 10 -27 29 -50 59 -72 52 -37 56 -52 41 -158 -7 -49
-17 -75 -37 -99 -22 -27 -24 -33 -10 -35 23 -5 42 18 50 63 4 22 13 49 19 60
6 11 11 27 12 35 5 52 34 82 36 38 2 -40 7 -62 22 -103 11 -28 12 -45 5 -58
-11 -22 -3 -36 13 -20 11 11 13 36 6 73 -3 14 -8 51 -12 82 -6 50 -4 58 14 67
30 17 36 14 51 -26 33 -92 30 -155 -11 -199 -22 -24 -24 -34 -6 -34 26 0 38
19 57 88 17 61 18 78 8 122 -9 39 -9 53 0 62 9 9 12 3 12 -25 0 -20 5 -37 11
-37 7 0 9 10 4 27 -6 23 -4 25 10 13 9 -7 14 -19 11 -26 -2 -6 1 -20 9 -31 16
-21 10 -87 -11 -120 -20 -32 -18 -46 5 -33 21 11 27 32 36 123 5 49 2 64 -19
100 -13 23 -27 62 -30 86 -7 53 -27 86 -64 105 -15 8 -36 23 -46 35 -31 34
-52 26 -93 -36 -21 -32 -46 -59 -54 -61 -19 -3 -54 61 -45 83 3 8 -2 21 -10
30 -17 17 -18 17 -56 5z"/>
</g>
</svg>
